<mxfile host="app.diagrams.net" modified="2024-04-22T05:38:15.968Z" agent="Mozilla/5.0 (Windows NT 10.0; Win64; x64) AppleWebKit/537.36 (KHTML, like Gecko) Chrome/123.0.0.0 Safari/537.36" etag="50MzYYqEfEkMiEEn4jcb" version="24.2.7" type="github">
  <diagram name="Page-1" id="UYF1CWwDuEJa-fLFtsD5">
    <mxGraphModel dx="1434" dy="784" grid="1" gridSize="10" guides="1" tooltips="1" connect="1" arrows="1" fold="1" page="1" pageScale="1" pageWidth="850" pageHeight="1100" math="0" shadow="0">
      <root>
        <mxCell id="0" />
        <mxCell id="1" parent="0" />
        <mxCell id="60JXSkUKhs_maxkFxEqW-2" style="edgeStyle=orthogonalEdgeStyle;rounded=0;orthogonalLoop=1;jettySize=auto;html=1;" edge="1" parent="1" source="60JXSkUKhs_maxkFxEqW-1">
          <mxGeometry relative="1" as="geometry">
            <mxPoint x="425" y="110" as="targetPoint" />
          </mxGeometry>
        </mxCell>
        <mxCell id="60JXSkUKhs_maxkFxEqW-1" value="START" style="html=1;dashed=0;whiteSpace=wrap;shape=mxgraph.dfd.start" vertex="1" parent="1">
          <mxGeometry x="385" y="20" width="80" height="30" as="geometry" />
        </mxCell>
        <mxCell id="60JXSkUKhs_maxkFxEqW-5" style="edgeStyle=orthogonalEdgeStyle;rounded=0;orthogonalLoop=1;jettySize=auto;html=1;entryX=0.5;entryY=0;entryDx=0;entryDy=0;" edge="1" parent="1" source="60JXSkUKhs_maxkFxEqW-3" target="60JXSkUKhs_maxkFxEqW-4">
          <mxGeometry relative="1" as="geometry" />
        </mxCell>
        <mxCell id="60JXSkUKhs_maxkFxEqW-3" value="Locator" style="shape=hexagon;perimeter=hexagonPerimeter2;whiteSpace=wrap;html=1;fixedSize=1;" vertex="1" parent="1">
          <mxGeometry x="365" y="110" width="120" height="100" as="geometry" />
        </mxCell>
        <mxCell id="60JXSkUKhs_maxkFxEqW-7" style="edgeStyle=orthogonalEdgeStyle;rounded=0;orthogonalLoop=1;jettySize=auto;html=1;" edge="1" parent="1" source="60JXSkUKhs_maxkFxEqW-4" target="60JXSkUKhs_maxkFxEqW-6">
          <mxGeometry relative="1" as="geometry" />
        </mxCell>
        <mxCell id="60JXSkUKhs_maxkFxEqW-4" value="Valid Input" style="whiteSpace=wrap;html=1;aspect=fixed;" vertex="1" parent="1">
          <mxGeometry x="385" y="270" width="80" height="80" as="geometry" />
        </mxCell>
        <mxCell id="60JXSkUKhs_maxkFxEqW-11" style="edgeStyle=orthogonalEdgeStyle;rounded=0;orthogonalLoop=1;jettySize=auto;html=1;" edge="1" parent="1" source="60JXSkUKhs_maxkFxEqW-6" target="60JXSkUKhs_maxkFxEqW-9">
          <mxGeometry relative="1" as="geometry" />
        </mxCell>
        <mxCell id="60JXSkUKhs_maxkFxEqW-6" value="Assert (Check if output)" style="whiteSpace=wrap;html=1;aspect=fixed;" vertex="1" parent="1">
          <mxGeometry x="385" y="400" width="80" height="80" as="geometry" />
        </mxCell>
        <mxCell id="60JXSkUKhs_maxkFxEqW-8" style="edgeStyle=orthogonalEdgeStyle;rounded=0;orthogonalLoop=1;jettySize=auto;html=1;" edge="1" parent="1" source="60JXSkUKhs_maxkFxEqW-9" target="60JXSkUKhs_maxkFxEqW-10">
          <mxGeometry relative="1" as="geometry" />
        </mxCell>
        <mxCell id="60JXSkUKhs_maxkFxEqW-9" value="Invalid Input" style="whiteSpace=wrap;html=1;aspect=fixed;" vertex="1" parent="1">
          <mxGeometry x="385" y="540" width="80" height="80" as="geometry" />
        </mxCell>
        <mxCell id="60JXSkUKhs_maxkFxEqW-10" value="Assert" style="whiteSpace=wrap;html=1;aspect=fixed;" vertex="1" parent="1">
          <mxGeometry x="385" y="670" width="80" height="80" as="geometry" />
        </mxCell>
        <mxCell id="60JXSkUKhs_maxkFxEqW-13" value="End" style="html=1;dashed=0;whiteSpace=wrap;shape=mxgraph.dfd.start" vertex="1" parent="1">
          <mxGeometry x="385" y="850" width="80" height="30" as="geometry" />
        </mxCell>
        <mxCell id="60JXSkUKhs_maxkFxEqW-14" style="edgeStyle=orthogonalEdgeStyle;rounded=0;orthogonalLoop=1;jettySize=auto;html=1;entryX=0.5;entryY=0.5;entryDx=0;entryDy=-15;entryPerimeter=0;" edge="1" parent="1" source="60JXSkUKhs_maxkFxEqW-10" target="60JXSkUKhs_maxkFxEqW-13">
          <mxGeometry relative="1" as="geometry" />
        </mxCell>
      </root>
    </mxGraphModel>
  </diagram>
</mxfile>
